<svg xmlns="http://www.w3.org/2000/svg" viewBox="0 0 382 382"><defs><style>.cls-1{fill:none;}.cls-2{fill:#212b36;}</style></defs><title>Change_Password</title><g id="Layer_2" data-name="Layer 2"><g id="Layer_1-2" data-name="Layer 1"><rect class="cls-1" width="382" height="382"/><path class="cls-2" d="M237.62,304.41A122.52,122.52,0,0,1,74.46,155.15L103,183.69l-.4-89.45L14,94.63l36.74,36.75A152.89,152.89,0,0,0,259.63,327.91l1.86-.93-23-23Z"/><path class="cls-2" d="M279,199.39l-.78,89h89.81L331.7,252.07a152.93,152.93,0,0,0-208.31-198l-1.87.93,23,22.95.92-.38A122.5,122.5,0,0,1,308.06,228.42Z"/><path class="cls-2" d="M191.43,125.69a31.66,31.66,0,0,0-31.63,31.62v11.25h-5.21a13.22,13.22,0,0,0-13.16,13.25v61.25a13.26,13.26,0,0,0,13.25,13.25h73.5a13.27,13.27,0,0,0,13.25-13.25V181.81a13.27,13.27,0,0,0-13.25-13.25h-5.13V157.31A31.65,31.65,0,0,0,191.43,125.69Zm17.37,42.87H174.05V157.31a17.38,17.38,0,0,1,34.75,0Z"/></g></g></svg>